<svg xmlns="http://www.w3.org/2000/svg" width="2400" height="1600" viewBox="0 0 2400 1600">
  <defs>
    <!-- base palette -->
    <linearGradient id="soft-sky" x1="0" y1="0" x2="1" y2="1">
      <stop offset="0%" stop-color="#e0f2fe" stop-opacity="0.8"/>
      <stop offset="100%" stop-color="#bae6fd" stop-opacity="0.4"/>
    </linearGradient>
    <radialGradient id="blob1" cx="0.2" cy="0.1" r="0.5">
      <stop offset="0%" stop-color="#38bdf8" stop-opacity="0.18"/>
      <stop offset="100%" stop-color="#38bdf8" stop-opacity="0"/>
    </radialGradient>
    <radialGradient id="blob2" cx="0.9" cy="0.2" r="0.5">
      <stop offset="0%" stop-color="#0ea5e9" stop-opacity="0.14"/>
      <stop offset="100%" stop-color="#0ea5e9" stop-opacity="0"/>
    </radialGradient>
    <radialGradient id="blob3" cx="0.3" cy="0.95" r="0.6">
      <stop offset="0%" stop-color="#7dd3fc" stop-opacity="0.12"/>
      <stop offset="100%" stop-color="#7dd3fc" stop-opacity="0"/>
    </radialGradient>

    <!-- subtle grid dots pattern -->
    <pattern id="dots" x="0" y="0" width="36" height="36" patternUnits="userSpaceOnUse">
      <circle cx="1" cy="1" r="1" fill="#cbd5e1" opacity="0.25"/>
    </pattern>

    <!-- rounded squiggle shape -->
    <path id="squiggle" d="M0,30 C80,-10 160,70 240,30 S400,-10 480,30" fill="none" stroke="#93c5fd" stroke-width="2" stroke-linecap="round" opacity="0.25"/>
  </defs>

  <!-- background base -->
  <rect width="2400" height="1600" fill="#f8fafc"/>

  <!-- big gradient washes -->
  <rect width="2400" height="1600" fill="url(#blob1)"/>
  <rect width="2400" height="1600" fill="url(#blob2)"/>
  <rect width="2400" height="1600" fill="url(#blob3)"/>

  <!-- dots overlay -->
  <rect width="2400" height="1600" fill="url(#dots)" opacity="0.45"/>

  <!-- decorative rounded cards-ish shapes -->
  <g opacity="0.20">
    <rect x="160" y="140" rx="48" ry="48" width="420" height="240" fill="url(#soft-sky)"/>
    <rect x="1840" y="1040" rx="56" ry="56" width="380" height="220" fill="url(#soft-sky)"/>
    <rect x="1040" y="1200" rx="40" ry="40" width="520" height="180" fill="url(#soft-sky)"/>
  </g>

  <!-- soft squiggles -->
  <g transform="translate(140,960) scale(2.2)">
    <use href="#squiggle"/>
  </g>
  <g transform="translate(1220,240) scale(1.8) rotate(180 240 30)">
    <use href="#squiggle"/>
  </g>
  <g transform="translate(560,360) scale(1.2)">
    <use href="#squiggle"/>
  </g>
</svg>